# xmcd CD database file
#
# Track frame offsets:
#	150
#	25359
#	39758
#	61689
#	76314
#	92636
#	112952
#	130555
#	139613
#	158230
#	179808
#
# Disc length: 2671 seconds
#
# Revision: 0
# Processed by: cddbd v1.5.1PL0 Copyright (c) Steve Scherf et al.
# Submitted via: CDex 1.51
#
DISCID=810a6d0b
DTITLE=little white snow - Re/Mix
DYEAR=2003
DGENRE=Game
TTITLE0=遊女/Mirage Lullaby
TTITLE1=HAPPY RUN
TTITLE2=Afternoon Tea Party
TTITLE3=雨上がりの朝に
TTITLE4=STEP DANCE
TTITLE5=Don't be afred.
TTITLE6=Sunlight Summer
TTITLE7=こっちからあっち　あっちからこっち
TTITLE8=In the Dream
TTITLE9=遊女/Mirage Lullaby
TTITLE10=ボーナストラック
EXTD=YEAR: 2003
EXTT0=
EXTT1=
EXTT2=
EXTT3=
EXTT4=
EXTT5=
EXTT6=
EXTT7=
EXTT8=
EXTT9=
EXTT10=
PLAYORDER=
